<?xml version="1.0" encoding="utf-8"?>
<!-- Generator: Adobe Illustrator 25.2.0, SVG Export Plug-In . SVG Version: 6.00 Build 0)  -->
<svg version="1.1" id="Layer_30" xmlns="http://www.w3.org/2000/svg" xmlns:xlink="http://www.w3.org/1999/xlink" x="0px" y="0px"
	 viewBox="0 0 406.4 276.5" style="enable-background:new 0 0 406.4 276.5;" xml:space="preserve">
<style type="text/css">
	.st0{fill:#FFFFFF;}
	.st1{fill:#A8BBE2;}
	.st2{fill:#DD4343;}
	.st3{fill:#FEBF00;}
	.st4{fill:#0D8F62;}
	.st5{fill:#49275A;}
	.st6{fill:#FFC3A8;}
	.st7{fill:#FCA689;}
	.st8{opacity:0.3;}
	.st9{fill:#441602;}
	.st10{fill:#682604;}
	.st11{fill:#02004E;}
	.st12{fill:#002B74;}
	.st13{fill:#4866FF;}
	.st14{fill:#FFC1A4;}
	.st15{fill:#FAA588;}
	.st16{fill:#C6C9DC;}
	.st17{fill:#15A06B;}
	.st18{fill:#101077;}
	.st19{fill:#02015E;}
	.st20{fill:#0D5E3F;}
	.st21{fill:#020050;}
	.st22{fill:#4B67FF;}
</style>
<g>
	<g>
		<path class="st0" d="M368.88,124.43H259.41c-8.6,0-15.58-6.97-15.58-15.58V38.86c0-8.6,6.97-15.58,15.58-15.58h109.47
			c8.6,0,15.58,6.97,15.58,15.58v69.99C384.46,117.46,377.48,124.43,368.88,124.43z"/>
		<path class="st1" d="M377.78,124.64H250.51c-3.8,0-6.89-3.09-6.89-6.89v-87.8c0-3.8,3.09-6.89,6.89-6.89h127.28
			c3.8,0,6.89,3.09,6.89,6.89v87.8C384.67,121.56,381.58,124.64,377.78,124.64z M250.51,23.5c-3.56,0-6.46,2.9-6.46,6.46v87.8
			c0,3.56,2.9,6.46,6.46,6.46h127.28c3.56,0,6.46-2.9,6.46-6.46v-87.8c0-3.56-2.9-6.46-6.46-6.46H250.51z"/>
	</g>
	<g>
		<circle class="st2" cx="251.41" cy="28.5" r="1.74"/>
	</g>
	<g>
		<circle class="st3" cx="256.96" cy="28.5" r="1.74"/>
	</g>
	<g>
		<circle class="st4" cx="262.49" cy="28.5" r="1.74"/>
	</g>
	<g>
		<path class="st1" d="M377.76,121.78H250.36c-2.37,0-4.29-1.92-4.29-4.29V33.38h135.98v84.11
			C382.05,119.86,380.13,121.78,377.76,121.78z"/>
	</g>
	<g>
		<path class="st5" d="M296.22,45.07c0,0,6.53-14.69,30.06-7.34c23.53,7.34,22.85,46.25,14.01,67.47l-36.72,16.59H286.7
			c0,0-16.87-14.15-7.48-23.4c9.39-9.25,18.23-18.5,13.87-29.24C288.74,58.4,289.14,49.28,296.22,45.07z"/>
	</g>
	<g>
		<path class="st6" d="M307.03,59.39c0,0,8.63,4.79,10.6,4.78C317.64,64.17,312.64,64.5,307.03,59.39z"/>
	</g>
	<g>
		<path class="st6" d="M296.89,46.27c0,0,6.3,20.18,20.87,18.9c0,0,5.02-2.85,7.38,2.76c2.36,5.61-4.04,8.07-4.04,8.07
			s3.15,4.43,5.51,8.96s6,12.8,7.78,13.68c0,0-10.57,3.84-15.38,3.64c0,0-2.44-17.52-10.02-15.16c-7.58,2.36-9.31,2.63-10.41-2.05
			l-1.02-0.85c-0.54-0.45-0.56-1.29-0.03-1.75c0.61-0.53,1.47-1.14,2.43-1.36c0,0-4.91-0.72-4.91-1.54c0-0.83,0.72-0.61,0.66-2.04
			c-0.06-1.43-1.87-1.71-2.54-1.93c-0.66-0.22-3.75-1.43-2.09-3.31s4.47-6.62,3.8-9.04S291.39,50.08,296.89,46.27z"/>
	</g>
	<g>
		<path class="st3" d="M348.44,121.78c0,0-0.06-15.33-14.05-23.15c0,0-10.15,3.67-15.38,3.64c0,0-5.4,7.11-8.53,8.54
			c-3.13,1.43-6.9,8.71-6.93,10.96H348.44z"/>
	</g>
	<g>
		<path class="st5" d="M304.98,63.9c-0.13,0-0.26-0.06-0.34-0.17c-1.47-1.94-3.04-3.01-4.66-3.18c-1.93-0.2-3.3,0.97-3.31,0.98
			c-0.18,0.15-0.45,0.14-0.6-0.04c-0.16-0.18-0.14-0.45,0.04-0.6c0.07-0.06,1.64-1.42,3.95-1.19c1.88,0.19,3.65,1.37,5.27,3.51
			c0.14,0.19,0.11,0.46-0.08,0.6C305.16,63.87,305.07,63.9,304.98,63.9z"/>
	</g>
	<g>
		<path class="st7" d="M320.86,72.93c-0.13,0-0.25-0.06-0.34-0.16c-0.15-0.19-0.12-0.45,0.07-0.6c0.57-0.45,0.9-0.99,0.97-1.59
			c0.13-1.15-0.7-2.21-0.71-2.22c-0.15-0.18-0.12-0.45,0.07-0.6c0.18-0.15,0.45-0.12,0.6,0.07c0.04,0.05,1.06,1.34,0.89,2.85
			c-0.09,0.84-0.53,1.57-1.29,2.17C321.05,72.9,320.95,72.93,320.86,72.93z"/>
	</g>
	<g>
		<ellipse class="st5" cx="299.72" cy="65.83" rx="0.96" ry="1.65"/>
	</g>
	<g class="st8">
		<circle class="st0" cx="338.14" cy="105.14" r="10.67"/>
	</g>
	<g class="st8">
		<circle class="st0" cx="365.18" cy="105.14" r="10.67"/>
	</g>
	<g>
		<g>
			<g>
				<path class="st0" d="M341.23,105.3c0-0.19-0.15-0.34-0.34-0.34c-0.19,0-0.34,0.15-0.34,0.34c0,1.33-1.08,2.41-2.41,2.41
					c-1.33,0-2.41-1.08-2.41-2.41c0-0.19-0.15-0.34-0.34-0.34c-0.19,0-0.34,0.15-0.34,0.34c0,1.58,1.18,2.91,2.76,3.09v0.91h-1.24
					c-0.19,0-0.34,0.15-0.34,0.34s0.15,0.34,0.34,0.34h3.16c0.19,0,0.34-0.15,0.34-0.34s-0.15-0.34-0.34-0.34h-1.24v-0.91
					C340.05,108.21,341.23,106.88,341.23,105.3z"/>
			</g>
		</g>
	</g>
	<g>
		<g>
			<g>
				<path class="st0" d="M338.14,100.3c-1.05,0-1.9,0.85-1.9,1.9v3.09c0,1.06,0.85,1.9,1.9,1.91c1.05,0,1.9-0.85,1.9-1.9v-3.1
					C340.04,101.15,339.19,100.3,338.14,100.3z"/>
			</g>
		</g>
	</g>
	<g>
		<g>
			<path class="st0" d="M370.27,101.55c-0.05-0.02-0.1-0.03-0.15-0.03c-0.11,0-0.2,0.04-0.27,0.11l-2.39,2.39v-0.98
				c0-0.47-0.17-0.87-0.5-1.21c-0.33-0.33-0.74-0.5-1.21-0.5h-4.18c-0.47,0-0.87,0.17-1.21,0.5c-0.33,0.33-0.5,0.74-0.5,1.21v4.18
				c0,0.47,0.17,0.87,0.5,1.21c0.33,0.33,0.74,0.5,1.21,0.5h4.18c0.47,0,0.87-0.17,1.21-0.5c0.33-0.33,0.5-0.74,0.5-1.21v-0.99
				l2.39,2.39c0.07,0.08,0.16,0.11,0.27,0.11c0.05,0,0.1-0.01,0.15-0.03c0.15-0.07,0.23-0.18,0.23-0.35v-6.46
				C370.5,101.74,370.42,101.62,370.27,101.55z"/>
		</g>
	</g>
	<g>
		<path class="st9" d="M120.39,249.72H47.56l-16.75-84.48c-1.86-9.36,5.3-18.09,14.85-18.09h49.8L120.39,249.72z"/>
	</g>
	<g>
		<path class="st10" d="M73.13,249.72H47.56l-16.75-84.48c-1.86-9.36,5.3-18.09,14.85-18.09H66.1c-4.15,2.96-9.9,8.18-9.24,14.06
			C57.64,168.25,68.31,224.5,73.13,249.72z"/>
	</g>
	<g>
		<path class="st11" d="M149.98,88.76c0,0-7.88-27.81,14.25-33.37c0,0,15.71-16.17,23.32,4.96c0,0,16.65-8.61,19.78,7.2
			s-12.34,17.03-12.34,17.03L149.98,88.76z"/>
	</g>
	<g>
		
			<ellipse transform="matrix(0.0849 -0.9964 0.9964 0.0849 77.1026 284.6371)" class="st12" cx="193.52" cy="100.34" rx="11.22" ry="6.76"/>
	</g>
	<g>
		
			<ellipse transform="matrix(0.0849 -0.9964 0.9964 0.0849 75.8204 281.9948)" class="st13" cx="191.44" cy="99.72" rx="9.51" ry="4.64"/>
	</g>
	<g>
		<path class="st14" d="M193.6,91.71c0.18,3.48-1.19,26.42-12.41,32.5c0,0-0.48,3.49-0.72,6.89c-0.13,1.86-0.2,3.7-0.07,4.93
			c0.35,3.47-18.6,19.64-18.6,19.64l-17.9-23.46l6.25-26.07l1.91-9.21c0,0-8.88-6.43-3.48-13.21c5.39-6.78,10.78,1.91,10.78,1.91
			s7.99,2.61,7.12-11.12c0,0,7.12,7.47,18.6,0c0,0,4.88,8.52,10.8,8.17C195.89,82.68,193.43,88.24,193.6,91.71z"/>
	</g>
	<g>
		<path class="st15" d="M181.19,124.21c0,0-0.48,3.49-0.72,6.89c0,0-28.61,1.23-25.12-30.44
			C155.18,102.81,154.1,124.54,181.19,124.21z"/>
	</g>
	<g>
		<path class="st0" d="M173.77,98.23c-4.68,0-8.48-3.81-8.48-8.48c0-4.68,3.81-8.48,8.48-8.48c4.68,0,8.48,3.81,8.48,8.48
			C182.26,94.42,178.45,98.23,173.77,98.23z M173.77,82.55c-3.97,0-7.2,3.23-7.2,7.2s3.23,7.2,7.2,7.2c3.97,0,7.2-3.23,7.2-7.2
			S177.74,82.55,173.77,82.55z"/>
	</g>
	<g>
		<path class="st0" d="M191.44,100.36c-4.33,0-7.86-3.53-7.86-7.86c0-4.33,3.53-7.86,7.86-7.86s7.86,3.53,7.86,7.86
			C199.3,96.83,195.78,100.36,191.44,100.36z M191.44,85.93c-3.63,0-6.57,2.95-6.57,6.57s2.95,6.57,6.57,6.57s6.57-2.95,6.57-6.57
			S195.07,85.93,191.44,85.93z"/>
	</g>
	<g>
		
			<rect x="162.27" y="82.19" transform="matrix(0.2384 -0.9712 0.9712 0.2384 40.6442 223.6318)" class="st0" width="1.28" height="7.41"/>
	</g>
	<g>
		<path class="st0" d="M136.43,134.93c0,0,6.61-2.22,8.51-4.97l21.2,13.61l14.32-11.58l7.08,5.1l1.36,112.55h-53.29L136.43,134.93z"
			/>
	</g>
	<g>
		<polygon class="st16" points="159.05,153.93 142.5,134.58 142.83,134.3 159.02,153.23 166.12,143.23 173.69,151.5 180.99,134.35 
			181.38,134.52 173.83,152.28 166.16,143.91 		"/>
	</g>
	<g>
		<rect x="166.39" y="146.32" class="st16" width="0.43" height="10.99"/>
	</g>
	<g>
		<path class="st16" d="M160.03,243.69l-0.39-0.18c0.05-0.11,5.06-10.71,8.06-18.2c2.42-6.04,2.22-7.93,2.04-9.6
			c-0.04-0.42-0.09-0.82-0.09-1.28c0-0.57-0.48-1.63-1.04-2.87c-1.61-3.56-4.05-8.95-0.67-13.26c4.6-5.86,3.75-15.54,1.73-20.24
			c-2.2-5.1-3.28-16.51-3.29-16.63l0.43-0.04c0.01,0.11,1.09,11.46,3.26,16.5c2.12,4.93,2.97,14.6-1.78,20.67
			c-3.22,4.1-0.85,9.35,0.72,12.82c0.6,1.33,1.08,2.39,1.08,3.05c0,0.43,0.04,0.82,0.09,1.23c0.18,1.72,0.39,3.67-2.07,9.81
			C165.1,232.96,160.08,243.58,160.03,243.69z"/>
	</g>
	<g>
		<path class="st16" d="M165.36,186.17c-1.11,0-2.01-0.9-2.01-2.01s0.9-2.01,2.01-2.01s2.01,0.9,2.01,2.01
			S166.47,186.17,165.36,186.17z M165.36,182.59c-0.87,0-1.58,0.71-1.58,1.58c0,0.87,0.71,1.58,1.58,1.58
			c0.87,0,1.58-0.71,1.58-1.58C166.94,183.3,166.23,182.59,165.36,182.59z"/>
	</g>
	<g>
		<path class="st16" d="M165.36,214.37c-1.11,0-2.01-0.9-2.01-2.01s0.9-2.01,2.01-2.01s2.01,0.9,2.01,2.01
			S166.47,214.37,165.36,214.37z M165.36,210.78c-0.87,0-1.58,0.71-1.58,1.58c0,0.87,0.71,1.58,1.58,1.58
			c0.87,0,1.58-0.71,1.58-1.58C166.94,211.49,166.23,210.78,165.36,210.78z"/>
	</g>
	<g>
		<path class="st4" d="M151.96,172.94c0,0,4.61,15.02,3.97,21.77c-0.64,6.76-9.33,55.01-9.33,55.01H83.87l3.65-9.01L53.3,240.6
			c0,0-26.27-3.97-12.44-26.81c13.83-22.84,41.28-62.52,49.01-67.02c0,0,8.3-10.26,38.82-12.06c2.93-0.18,6.07-0.27,9.43-0.27
			c0,0-0.11,20.7,18.87,26.06L151.96,172.94z"/>
	</g>
	<g>
		<path class="st17" d="M157,160.5l-5.04,12.44c-28.42-11.8-23.27-38.23-23.27-38.23c2.93-0.18,6.07-0.27,9.43-0.27
			C138.13,134.44,138.02,155.14,157,160.5z"/>
	</g>
	<g>
		<path class="st4" d="M230.01,162.43l-8.56,87.29h-42.36c1.71-7.4-0.11-53.83-0.11-53.83c-4.61-10.72-0.54-25.1-0.54-25.1
			l-5.57-11.69c15.22-11.9,13.4-22.73,13.4-22.73c1.53,0.74,4.4,1.66,7.96,2.68c6.01,1.72,13.98,3.73,20.73,5.58
			C225.71,147.59,230.01,162.43,230.01,162.43z"/>
	</g>
	<g>
		<path class="st17" d="M194.24,139.05c-0.9,27.27-15.79,31.74-15.79,31.74l-5.57-11.69c15.22-11.9,13.4-22.73,13.4-22.73
			C187.81,137.11,190.68,138.03,194.24,139.05z"/>
	</g>
	<g>
		<path class="st11" d="M226.43,249.72h-83.81c-1.98,0-3.58-1.6-3.58-3.58v0c0-1.98,1.6-3.58,3.58-3.58h83.81
			c1.98,0,3.58,1.6,3.58,3.58v0C230.01,248.11,228.41,249.72,226.43,249.72z"/>
	</g>
	<g>
		<path class="st0" d="M161.28,247.37c-0.68,0-1.24-0.55-1.24-1.24c0-0.68,0.55-1.24,1.24-1.24c0.68,0,1.24,0.55,1.24,1.24
			C162.52,246.81,161.97,247.37,161.28,247.37z M161.28,245.32c-0.45,0-0.81,0.36-0.81,0.81s0.36,0.81,0.81,0.81
			c0.45,0,0.81-0.36,0.81-0.81S161.73,245.32,161.28,245.32z"/>
	</g>
	<g>
		<rect x="165.19" y="245.92" class="st0" width="9.53" height="0.43"/>
	</g>
	<g>
		<path class="st18" d="M339.8,167.9l-21.09,77.5c-0.69,2.55-3.01,4.32-5.65,4.32H206.32l1.61-6.39l20.19-80.13
			c1.11-4.42,5.11-7.51,9.66-7.47l93.34,0.71c3.14,0.03,5.83,1.62,7.43,3.97C339.98,162.5,340.55,165.19,339.8,167.9z"/>
	</g>
	<g>
		<path class="st19" d="M339.8,167.9l-21.09,77.5c-0.69,2.55-3.01,4.32-5.65,4.32H206.32l1.61-6.39l130.62-82.92
			C339.98,162.5,340.55,165.19,339.8,167.9z"/>
	</g>
	<g>
		<path class="st0" d="M230.92,189.85l-0.42-0.1l5.13-21.88c0-0.02,0.62-4.58,5.69-4.28c4.87,0.29,66.25-0.01,66.87-0.01l0,0.43
			c-0.62,0-62.02,0.3-66.9,0.01c-4.66-0.28-5.22,3.76-5.24,3.93L230.92,189.85z"/>
	</g>
	<g>
		<circle class="st0" cx="280.46" cy="198.87" r="3.98"/>
	</g>
	<g>
		<path class="st14" d="M116.01,219.87l12.32,2.16c0,0,26.7-11.83,31.79-9.32s27.45,17.26,28.23,19.77c0.78,2.5-2.24,4.14-4.75,3.19
			s-9.84-6.56-9.84-6.56s6.3,7.34,1.29,11.39c0,0-1.04,3.45-5.18,1.38c0,0-4.32,0.86-6.13-1.12c-1.81-1.99-2.85-2.76-5.09-2.33
			s-11.83,3.54-14.76,3.37c-2.93-0.17-8.27-1.29-8.27-1.29l-26.78,0.26L116.01,219.87z"/>
	</g>
	<g>
		<path class="st11" d="M124.28,231.51c0,0-1.56,7.1-0.56,9.11l-7.23,0.07c0,0,0.5-8.08,1.85-9.58
			C119.69,229.61,124.28,231.51,124.28,231.51z"/>
	</g>
	<g>
		
			<ellipse transform="matrix(0.4724 -0.8814 0.8814 0.4724 -133.3778 227.9563)" class="st11" cx="123.72" cy="225.39" rx="9.01" ry="7.25"/>
	</g>
	<g>
		
			<ellipse transform="matrix(0.4724 -0.8814 0.8814 0.4724 -133.3778 227.9563)" class="st0" cx="123.72" cy="225.39" rx="7.59" ry="6.1"/>
	</g>
	<g>
		<polygon class="st11" points="125.43,227.93 122.85,225.61 126.84,222.31 127.11,222.64 123.51,225.63 125.72,227.61 		"/>
	</g>
	<g>
		<path class="st15" d="M173.76,229.54c-0.11,0-0.22-0.04-0.31-0.13l-7.16-7.45c-0.16-0.17-0.16-0.44,0.01-0.61
			c0.17-0.16,0.44-0.16,0.61,0.01l7.16,7.45c0.16,0.17,0.16,0.44-0.01,0.61C173.97,229.5,173.87,229.54,173.76,229.54z"/>
	</g>
	<g>
		<path class="st15" d="M175.05,240.93c-0.21,0-0.4-0.16-0.42-0.37c-0.96-7.4-11.15-12.67-11.25-12.72
			c-0.21-0.11-0.29-0.37-0.19-0.58s0.37-0.29,0.58-0.19c0.11,0.06,2.7,1.38,5.45,3.69c3.68,3.08,5.84,6.43,6.26,9.69
			c0.03,0.23-0.14,0.45-0.37,0.48C175.09,240.93,175.07,240.93,175.05,240.93z"/>
	</g>
	<g>
		<path class="st15" d="M169.88,242.31c-0.2,0-0.38-0.14-0.42-0.34c-1.23-5.77-8.69-8.74-8.76-8.77c-0.22-0.09-0.33-0.33-0.24-0.55
			c0.09-0.22,0.33-0.33,0.55-0.24c0.08,0.03,2.01,0.79,4.12,2.31c2.83,2.04,4.61,4.49,5.17,7.07c0.05,0.23-0.1,0.46-0.33,0.51
			C169.94,242.31,169.91,242.31,169.88,242.31z"/>
	</g>
	<g>
		<path class="st20" d="M95.47,214.86c-0.08,0-0.15-0.02-0.22-0.06c-0.2-0.12-0.27-0.39-0.14-0.59l26.53-43.64
			c0.12-0.2,0.39-0.27,0.59-0.14c0.2,0.12,0.27,0.39,0.14,0.59l-26.53,43.64C95.75,214.78,95.61,214.86,95.47,214.86z"/>
	</g>
	<g>
		<path class="st20" d="M116.01,220.3c-0.03,0-0.07,0-0.11-0.01l-48.43-12.31c-0.23-0.06-0.37-0.29-0.31-0.52
			c0.06-0.23,0.29-0.37,0.52-0.31l48.43,12.31c0.23,0.06,0.37,0.29,0.31,0.52C116.38,220.17,116.2,220.3,116.01,220.3z"/>
	</g>
	<g>
		<path class="st20" d="M119,166.83c-0.21,0-0.39-0.15-0.42-0.37c-2.03-14.03-14.75-20.79-14.88-20.86
			c-0.21-0.11-0.29-0.37-0.18-0.58c0.11-0.21,0.37-0.29,0.58-0.18c0.13,0.07,13.24,7.04,15.33,21.5c0.03,0.23-0.13,0.45-0.36,0.49
			C119.05,166.83,119.03,166.83,119,166.83z"/>
	</g>
	<g>
		<path class="st20" d="M191.74,250.15c-0.04,0-0.07,0-0.11-0.01c-0.23-0.06-0.37-0.29-0.3-0.52c0.17-0.64,17.05-64.56,20.83-78.93
			c3.85-14.64,8.49-15.41,8.69-15.44c0.23-0.03,0.45,0.13,0.48,0.37c0.03,0.23-0.13,0.45-0.36,0.48c-0.08,0.02-4.34,0.96-7.98,14.81
			c-3.77,14.37-20.66,78.28-20.83,78.93C192.1,250.02,191.93,250.15,191.74,250.15z"/>
	</g>
	<g>
		<path class="st20" d="M108.85,241.19C108.85,241.19,108.85,241.19,108.85,241.19l-21.33-0.06c-0.24,0-0.43-0.19-0.43-0.43
			c0-0.24,0.19-0.43,0.43-0.43c0,0,0,0,0,0l21.33,0.06c0.24,0,0.43,0.19,0.43,0.43C109.27,241,109.08,241.19,108.85,241.19z"/>
	</g>
	<g>
		<path class="st21" d="M142.51,216.7c-5.69-2.27-9.18-5.17-10.68-8.88c-2.27-5.6,0.54-11.86,3.02-17.38
			c0.95-2.11,1.84-4.11,2.38-5.89c1.47-4.95-3.87-10.87-9.54-17.15c-4.55-5.05-9.26-10.27-10.85-15.47
			c-3.37-11.01,13.17-25.43,20.23-31.59c0.52-0.46,0.99-0.86,1.37-1.2c5.2-4.62,7.86-9.3,7.89-9.35l0.75,0.42
			c-0.03,0.05-2.76,4.85-8.07,9.57c-0.39,0.34-0.85,0.75-1.38,1.21c-6.34,5.53-23.18,20.21-19.97,30.69
			c1.54,5.02,6.18,10.17,10.67,15.14c5.83,6.46,11.33,12.56,9.72,17.97c-0.55,1.84-1.46,3.86-2.42,6
			c-2.41,5.37-5.14,11.45-3.01,16.71c1.41,3.48,4.75,6.23,10.2,8.4L142.51,216.7z"/>
	</g>
	<g>
		<path class="st21" d="M134.11,173.72l-0.86-0.01c0.11-17.26,19.53-25.16,38.32-32.8c4.18-1.7,8.49-3.46,12.48-5.28
			c6.72-3.07,10.65-7.01,11.68-11.72c1.51-6.89-3.79-13.16-3.85-13.22l0.65-0.56c0.23,0.27,5.64,6.64,4.04,13.96
			c-1.09,4.99-5.18,9.14-12.16,12.32c-4,1.83-8.33,3.59-12.51,5.29C153.37,149.24,134.22,157.03,134.11,173.72z"/>
	</g>
	<g>
		<path class="st21" d="M147.15,105.29l-1.93,4.99c-0.2,0.51,0.03,1.09,0.53,1.33l0,0c0.46,0.22,1.01,0.07,1.31-0.34l3.97-5.62
			L147.15,105.29z"/>
	</g>
	<g>
		<path class="st22" d="M153.13,75.01c0.84-1.45,1.75-2.98,2.72-4.56c7.48-12.25,15.42-10.66,17.53-10.81
			c2.12-0.15,13.38,1.59,13.38,1.59l-4.34,4.61c-10.91-0.83-12.07-0.38-15.16,2.87c-1.61,1.68-3.57,6.05-5.17,10.12"/>
	</g>
	<g>
		<path class="st12" d="M159.09,87.15c1.17,3.36,2.34,9.37-0.98,14.89c-3.32,5.52-11.53,4.59-11.53,4.59l-2.01-15.17
			c0,0,2.87-6.65,8.56-16.45l8.96,3.82C160.38,83.16,159.09,87.15,159.09,87.15z"/>
	</g>
	<g>
		<path class="st0" d="M179.4,72.48l-0.4-0.14c0.03-0.07,2.66-7.53,8.42-12.16l0.27,0.33C182.02,65.07,179.42,72.41,179.4,72.48z"/>
	</g>
	<g>
		
			<ellipse transform="matrix(0.1118 -0.9937 0.9937 0.1118 37.8282 230.7108)" class="st22" cx="147.97" cy="94.19" rx="12.51" ry="7.79"/>
	</g>
	<g>
		
			<ellipse transform="matrix(0.1118 -0.9937 0.9937 0.1118 37.8282 230.7108)" class="st12" cx="147.97" cy="94.19" rx="6.37" ry="3.97"/>
	</g>
	<g>
		<path class="st11" d="M181.49,83.97c-0.22,0-0.45-0.09-0.61-0.26c-3.26-3.36-8.25-2.94-8.3-2.93c-0.47,0.04-0.89-0.3-0.93-0.77
			c-0.04-0.47,0.3-0.89,0.77-0.93c0.24-0.02,5.85-0.51,9.7,3.44c0.33,0.34,0.32,0.88-0.02,1.21
			C181.92,83.89,181.71,83.97,181.49,83.97z"/>
	</g>
	<g>
		<path class="st11" d="M192.85,84.59c-0.22,0-0.44-0.08-0.61-0.25c-1.5-1.51-4.86-0.9-6.03-0.54c-0.45,0.14-0.93-0.11-1.07-0.56
			c-0.14-0.45,0.11-0.93,0.56-1.07c0.21-0.07,5.21-1.59,7.75,0.97c0.33,0.34,0.33,0.88,0,1.21
			C193.29,84.51,193.07,84.59,192.85,84.59z"/>
	</g>
	<g>
		<path class="st15" d="M180.67,102.47c-0.21,0-0.39-0.15-0.42-0.36c-0.04-0.23,0.12-0.45,0.35-0.49c0.01,0,1.54-0.28,2.25-1.52
			c0.51-0.89,0.5-2.07-0.04-3.51c-1.84-4.98,0.85-10.7,0.97-10.95c0.1-0.21,0.36-0.3,0.57-0.2c0.21,0.1,0.3,0.36,0.2,0.57
			c-0.03,0.06-2.65,5.65-0.94,10.28c0.63,1.7,0.62,3.13-0.03,4.25c-0.92,1.58-2.76,1.92-2.84,1.93
			C180.72,102.46,180.7,102.47,180.67,102.47z"/>
	</g>
	<g>
		<path class="st0" d="M180.67,106.24c-8.35-0.95-8.35-0.95-8.35-0.95s3.28,5.89,8.15,6.14c5.6,0.28,7.08-4.13,7.08-4.13
			L180.67,106.24z"/>
	</g>
	<g>
		<ellipse transform="matrix(0.1886 -0.9821 0.9821 0.1886 54.6213 245.8876)" cx="176.12" cy="89.89" rx="2.55" ry="1.46"/>
	</g>
	<g>
		<ellipse transform="matrix(0.1886 -0.9821 0.9821 0.1886 63.8008 260.2533)" cx="189.4" cy="91.52" rx="2.55" ry="1.46"/>
	</g>
	<g>
		
			<rect x="182.55" y="86.51" transform="matrix(0.1556 -0.9878 0.9878 0.1556 67.2276 255.7417)" class="st0" width="1.29" height="4.07"/>
	</g>
</g>
</svg>
